<?xml version="1.0" standalone="no"?>
<!DOCTYPE svg PUBLIC "-//W3C//DTD SVG 20010904//EN"
 "http://www.w3.org/TR/2001/REC-SVG-20010904/DTD/svg10.dtd">
<svg version="1.0" xmlns="http://www.w3.org/2000/svg"
 width="200.000000pt" height="200.000000pt" viewBox="0 0 200.000000 200.000000"
 preserveAspectRatio="xMidYMid meet">

<g transform="translate(0.000000,200.000000) scale(0.100000,-0.100000)"
fill="#000000" stroke="none">
<path d="M990 1921 c-14 -4 -45 -6 -70 -4 -47 3 -110 -25 -110 -49 0 -11 -7
-21 -67 -82 -17 -17 -23 -35 -23 -70 0 -25 4 -46 10 -46 8 0 20 4 85 31 37 15
129 38 135 34 4 -2 37 -9 74 -15 37 -6 78 -18 91 -26 18 -12 29 -13 43 -5 16
9 27 5 58 -20 52 -41 101 -104 109 -139 3 -16 13 -34 21 -41 23 -19 18 29 -11
109 -14 38 -25 85 -25 105 0 29 -7 41 -40 67 -22 17 -40 38 -40 45 0 20 -96
85 -125 85 -14 0 -25 4 -25 10 0 5 -7 7 -15 4 -8 -4 -15 -1 -15 5 0 12 -22 13
-60 2z"/>
<path d="M660 1578 c-11 -18 -20 -42 -19 -53 0 -14 2 -16 6 -5 3 8 14 32 25
53 23 46 15 49 -12 5z"/>
<path d="M1088 1346 c-20 -8 -39 -12 -42 -9 -3 4 -6 1 -6 -6 0 -6 -11 -16 -25
-21 -30 -12 -31 -17 -3 -92 15 -42 25 -57 35 -53 8 3 20 2 26 -2 7 -4 14 -8
17 -8 3 -1 20 -5 38 -9 24 -6 43 -3 68 9 20 9 45 15 56 12 25 -7 58 25 58 58
0 42 -29 102 -57 114 -41 19 -124 22 -165 7z"/>
<path d="M745 1320 c-34 -11 -55 -35 -55 -62 0 -17 2 -17 30 -3 43 22 57 19
32 -8 -29 -31 -28 -37 8 -37 17 0 39 -9 50 -20 24 -24 48 -25 79 -4 17 12 22
24 19 45 -4 23 0 29 19 34 31 7 29 49 -2 51 -11 1 -49 4 -85 7 -36 3 -78 2
-95 -3z m40 -90 c3 -5 1 -10 -4 -10 -6 0 -11 5 -11 10 0 6 2 10 4 10 3 0 8 -4
11 -10z"/>
<path d="M1382 1228 c-14 -14 -16 -44 -3 -52 5 -3 11 9 14 27 6 38 4 40 -11
25z"/>
<path d="M1908 1223 c-21 -5 -23 -19 -5 -26 10 -4 10 -6 0 -6 -25 -2 -13 -31
12 -31 22 0 25 4 25 35 0 19 -3 34 -7 34 -5 -1 -16 -3 -25 -6z"/>
<path d="M1341 1079 c-28 -102 -57 -168 -84 -191 -26 -23 -29 -22 -45 3 -10
15 -10 24 -2 34 7 8 7 15 1 19 -5 4 -11 -2 -14 -11 -3 -16 -5 -16 -12 2 -5 11
-12 22 -16 25 -4 3 -22 32 -39 65 -36 66 -50 85 -50 68 0 -6 -9 -13 -20 -16
-28 -7 -25 -32 6 -46 31 -14 27 -33 -7 -38 -13 -2 -37 -13 -52 -24 -15 -11
-36 -19 -45 -16 -9 2 -38 -5 -63 -14 -26 -10 -49 -15 -52 -13 -3 3 -17 -2 -31
-11 -18 -12 -28 -30 -32 -55 -6 -36 -8 -38 -29 -28 -13 6 -26 19 -28 29 -5 20
-27 27 -27 9 0 -5 5 -10 10 -10 6 0 10 -25 10 -56 0 -32 -4 -53 -10 -49 -5 3
-26 -1 -46 -10 -20 -8 -37 -15 -38 -15 -1 0 0 21 2 46 l4 46 -31 -16 c-31 -17
-41 -10 -19 12 16 16 7 22 -20 15 -16 -4 -22 -13 -22 -33 0 -38 -10 -61 -23
-53 -6 3 -7 1 -3 -5 4 -7 3 -12 -3 -12 -5 0 -13 -12 -18 -27 -7 -21 -16 -27
-44 -28 -18 -1 -42 0 -52 2 -30 8 -8 23 34 23 21 0 39 4 39 9 0 10 -118 24
-205 25 l-50 1 2 -47 3 -48 -53 -1 c-91 -2 -112 2 -129 22 -27 32 -39 14 -34
-48 5 -62 13 -76 27 -50 13 22 35 22 43 1 4 -9 9 -15 12 -12 2 3 0 16 -5 30
-7 19 -6 25 5 25 8 0 14 -7 15 -16 0 -14 1 -14 6 -1 12 28 28 38 41 24 13 -14
55 -10 60 5 2 6 13 5 28 -1 20 -9 27 -9 33 1 6 9 11 10 15 2 8 -13 46 -15 46
-2 0 5 30 11 67 15 109 10 123 12 135 24 7 7 19 12 28 12 9 0 55 19 102 43 84
43 86 43 85 20 0 -21 26 -52 45 -53 4 0 5 12 2 26 -3 15 -1 23 5 19 14 -8 61
5 61 17 0 5 -7 16 -15 24 -37 38 -5 89 62 98 27 4 31 3 13 -2 l-25 -8 28 -7
c35 -9 36 -37 1 -37 -26 0 -26 -1 -10 -25 9 -13 16 -31 16 -40 0 -8 5 -15 11
-15 8 0 8 -4 0 -14 -9 -10 -9 -24 -2 -48 6 -21 10 -26 10 -13 l2 20 11 -20 c6
-11 16 -23 22 -27 6 -4 0 -11 -14 -16 l-25 -10 28 -11 c15 -6 27 -16 27 -22 0
-6 6 -9 14 -6 8 3 17 -1 20 -10 5 -12 15 -14 49 -9 49 8 73 26 37 27 -16 0
-19 3 -10 6 21 8 128 120 135 142 7 23 73 27 101 6 19 -14 19 -14 -1 -15 -17
0 -17 -2 -5 -10 24 -15 30 -12 30 16 0 23 1 24 16 9 9 -9 26 -15 38 -13 11 1
27 -1 34 -5 7 -5 14 -3 16 5 11 35 16 40 12 16 -2 -22 1 -28 15 -28 11 0 20 8
20 18 1 9 4 4 8 -13 5 -23 12 -31 34 -33 24 -3 27 0 27 27 0 24 4 31 20 31 18
0 20 7 20 86 0 64 -3 85 -12 82 -7 -3 -14 -19 -16 -37 -3 -27 -6 -30 -18 -20
-8 6 -14 21 -14 32 0 18 -4 19 -52 13 -29 -3 -65 -6 -80 -6 -20 0 -26 -4 -22
-15 4 -8 1 -15 -5 -15 -6 0 -11 8 -12 18 0 10 -3 12 -6 5 -7 -18 -24 -16 -38
3 -8 12 -9 30 -4 58 5 23 8 64 9 93 0 28 4 62 9 75 4 13 5 31 2 42 -5 13 -14
-7 -30 -65z m-227 -124 c3 -8 1 -15 -4 -15 -6 0 -10 7 -10 15 0 8 2 15 4 15 2
0 6 -7 10 -15z m356 -93 c0 -14 -11 -21 -26 -15 -21 8 -17 23 6 23 11 0 20 -4
20 -8z m90 -22 c0 -5 -7 -10 -16 -10 -8 0 -12 5 -9 10 3 6 10 10 16 10 5 0 9
-4 9 -10z m-136 -16 c4 -10 1 -14 -6 -12 -15 5 -23 28 -10 28 5 0 13 -7 16
-16z m-677 -26 c2 -17 0 -19 -7 -8 -5 8 -6 18 -4 22 8 12 10 10 11 -14z m552
-9 c-9 -5 -15 -4 -18 2 -2 6 3 15 10 20 9 5 15 4 18 -2 2 -6 -3 -15 -10 -20z
m288 15 c-3 -3 -12 -4 -19 -1 -8 3 -5 6 6 6 11 1 17 -2 13 -5z m-1039 -91 c2
-20 -1 -24 -9 -16 -7 7 -9 19 -6 27 9 23 12 20 15 -11z m-19 -38 c0 -5 -4 -3
-9 5 -5 8 -9 22 -9 30 0 16 17 -16 18 -35z m601 0 c0 -18 -39 -45 -76 -51
l-29 -4 25 20 c14 11 30 24 35 28 9 7 27 16 43 21 1 1 2 -6 2 -14z m-80 -80
c-7 -9 -15 -13 -19 -10 -3 3 1 10 9 15 21 14 24 12 10 -5z"/>
<path d="M250 1100 c0 -22 5 -40 11 -40 5 0 8 -4 4 -9 -3 -6 2 -14 11 -19 9
-5 17 -13 17 -18 1 -5 30 -8 65 -7 l62 3 0 -39 c0 -22 -6 -42 -12 -45 -7 -3 6
-4 29 -2 29 3 43 0 47 -10 3 -8 14 -14 25 -14 18 0 18 -1 -1 -55 -11 -30 -18
-62 -14 -71 12 -31 23 2 25 79 1 9 7 17 15 17 17 0 46 27 46 42 0 5 -7 8 -15
4 -12 -4 -15 5 -15 54 0 50 3 60 18 60 13 1 11 4 -8 16 -14 8 -17 13 -8 10 11
-3 22 2 28 14 8 14 8 20 0 20 -6 0 -8 5 -5 10 9 15 -67 12 -87 -4 -11 -8 -15
-20 -11 -34 3 -13 1 -22 -6 -22 -6 0 -11 -7 -11 -15 0 -10 11 -15 35 -15 19 0
35 -4 35 -9 0 -11 -86 -9 -96 2 -4 4 -2 7 4 7 20 0 13 16 -13 30 -13 7 -22 17
-18 23 3 5 0 7 -8 5 -8 -3 -13 -11 -11 -17 2 -8 -5 -7 -19 3 -12 8 -28 12 -35
9 -10 -4 -14 3 -14 25 0 34 -2 36 -42 46 -27 6 -28 5 -28 -34z m274 -45 c-4
-8 -10 -12 -15 -9 -14 8 -10 24 6 24 9 0 12 -6 9 -15z m-64 -103 c0 -5 -7 -9
-15 -9 -8 0 -15 4 -15 9 0 4 7 8 15 8 8 0 15 -4 15 -8z"/>
<path d="M1690 1060 c0 -94 17 -108 22 -17 4 69 0 97 -13 97 -5 0 -9 -36 -9
-80z"/>
<path d="M1890 1101 c0 -35 3 -41 21 -41 17 0 20 5 17 37 -2 27 -8 39 -20 41
-15 3 -18 -4 -18 -37z"/>
<path d="M1470 1109 c0 -5 9 -9 20 -9 11 0 20 2 20 4 0 2 -9 6 -20 9 -11 3
-20 1 -20 -4z"/>
<path d="M1520 1110 c0 -5 7 -7 15 -4 8 4 15 8 15 10 0 2 -7 4 -15 4 -8 0 -15
-4 -15 -10z"/>
<path d="M1527 1093 c-4 -3 -7 -15 -7 -25 0 -17 1 -17 20 -1 11 10 20 21 20
25 0 10 -24 11 -33 1z"/>
<path d="M1491 1074 c0 -11 3 -14 6 -6 3 7 2 16 -1 19 -3 4 -6 -2 -5 -13z"/>
<path d="M140 1040 c0 -25 4 -30 25 -30 30 0 34 26 8 46 -27 20 -33 17 -33
-16z"/>
<path d="M1386 1061 c-4 -7 -5 -15 -2 -18 9 -9 19 4 14 18 -4 11 -6 11 -12 0z"/>
<path d="M855 1016 c-19 -18 -35 -38 -35 -43 0 -6 -7 -16 -15 -23 -8 -7 -13
-16 -10 -20 8 -13 63 42 84 83 10 20 17 37 14 37 -2 0 -20 -15 -38 -34z"/>
<path d="M253 998 c-2 -18 0 -20 7 -8 12 18 13 30 2 30 -4 0 -9 -10 -9 -22z"/>
<path d="M1478 1013 c7 -3 16 -2 19 1 4 3 -2 6 -13 5 -11 0 -14 -3 -6 -6z"/>
<path d="M640 954 c0 -32 -4 -44 -12 -42 -7 3 -15 13 -16 24 -6 28 -20 40 -33
27 -15 -15 7 -47 48 -67 24 -12 33 -12 33 -3 0 8 4 7 10 -3 9 -14 6 27 -6 88
-8 39 -24 24 -24 -24z"/>
<path d="M318 973 c7 -3 16 -2 19 1 4 3 -2 6 -13 5 -11 0 -14 -3 -6 -6z"/>
<path d="M905 970 c3 -5 8 -10 11 -10 2 0 4 5 4 10 0 6 -5 10 -11 10 -5 0 -7
-4 -4 -10z"/>
<path d="M1545 971 c-3 -5 -1 -12 5 -16 5 -3 10 1 10 9 0 18 -6 21 -15 7z"/>
<path d="M1898 963 c-19 -5 -27 -63 -9 -63 5 0 16 -3 25 -6 13 -5 16 2 16 35
0 23 -3 40 -7 40 -5 -1 -16 -3 -25 -6z"/>
<path d="M320 950 c-21 -7 -19 -8 18 -9 23 -1 42 4 42 9 0 12 -24 12 -60 0z"/>
<path d="M1690 880 c0 -47 4 -80 10 -80 6 0 10 33 10 80 0 47 -4 80 -10 80 -6
0 -10 -33 -10 -80z"/>
<path d="M30 935 c0 -9 9 -15 21 -15 18 0 19 2 5 15 -8 8 -17 15 -20 15 -3 0
-6 -7 -6 -15z"/>
<path d="M87 944 c-12 -12 4 -24 34 -24 34 0 39 15 7 24 -29 7 -33 7 -41 0z"/>
<path d="M0 912 c0 -18 4 -32 9 -32 16 0 19 26 5 45 -13 17 -14 17 -14 -13z"/>
<path d="M170 930 c0 -5 7 -10 16 -10 8 0 12 5 9 10 -3 6 -10 10 -16 10 -5 0
-9 -4 -9 -10z"/>
<path d="M245 912 c-3 -8 -4 -15 -3 -16 13 -6 148 8 148 15 0 10 4 10 -77 13
-47 1 -64 -2 -68 -12z"/>
<path d="M1380 920 c0 -5 7 -10 15 -10 8 0 15 5 15 10 0 6 -7 10 -15 10 -8 0
-15 -4 -15 -10z"/>
<path d="M43 898 c-4 -7 -8 -20 -10 -28 -1 -8 -9 -20 -17 -26 -20 -14 -23
-139 -4 -147 22 -8 58 11 58 30 0 14 9 19 37 21 43 3 39 -1 46 40 6 29 4 32
-18 32 -18 0 -25 -5 -25 -19 0 -10 -9 -21 -20 -24 -17 -4 -20 0 -20 24 0 19 5
29 15 29 21 0 19 50 -2 66 -23 17 -30 17 -40 2z"/>
<path d="M250 860 c0 -5 5 -10 11 -10 5 0 7 5 4 10 -3 6 -8 10 -11 10 -2 0 -4
-4 -4 -10z"/>
<path d="M665 860 c3 -5 8 -10 11 -10 2 0 4 5 4 10 0 6 -5 10 -11 10 -5 0 -7
-4 -4 -10z"/>
<path d="M134 851 c-13 -13 1 -21 36 -21 30 0 38 3 34 15 -5 13 -58 17 -70 6z"/>
<path d="M245 810 c3 -5 2 -10 -3 -10 -5 0 -12 -11 -14 -25 -5 -26 16 -37 24
-13 3 8 22 12 49 11 43 -1 43 -1 9 7 -19 4 -31 8 -26 9 5 0 3 8 -4 16 -14 17
-45 21 -35 5z"/>
<path d="M1690 760 c0 -5 5 -10 10 -10 6 0 10 5 10 10 0 6 -4 10 -10 10 -5 0
-10 -4 -10 -10z"/>
<path d="M880 724 c0 -3 6 -12 14 -19 12 -12 15 -12 19 -1 3 8 -1 17 -9 20
-19 7 -24 7 -24 0z"/>
<path d="M1600 686 c0 -9 7 -16 16 -16 9 0 14 5 12 12 -6 18 -28 21 -28 4z"/>
<path d="M1493 683 c-24 -9 -14 -33 13 -33 18 0 25 5 22 17 -3 18 -16 24 -35
16z"/>
<path d="M1676 663 c-12 -12 -6 -33 9 -33 8 0 15 -6 15 -14 0 -10 7 -12 22 -8
12 3 17 7 10 10 -6 2 -12 10 -12 17 0 16 -34 38 -44 28z"/>
<path d="M1170 593 c-13 -15 -12 -16 4 -10 10 4 20 7 22 7 2 0 4 5 4 10 0 15
-13 12 -30 -7z"/>
<path d="M1252 552 c-24 -42 -27 -51 -11 -36 24 21 52 71 47 83 -2 5 -18 -17
-36 -47z"/>
<path d="M1803 593 c9 -2 23 -2 30 0 6 3 -1 5 -18 5 -16 0 -22 -2 -12 -5z"/>
<path d="M865 577 c25 -17 87 -39 93 -32 3 2 -8 9 -24 15 -16 5 -37 15 -46 20
-26 15 -45 12 -23 -3z"/>
<path d="M1018 463 c7 -3 16 -2 19 1 4 3 -2 6 -13 5 -11 0 -14 -3 -6 -6z"/>
</g>
</svg>
