<?xml version="1.0" encoding="UTF-8"?>
<svg version="1.1" xmlns="http://www.w3.org/2000/svg" width="32" height="32">
<path d="M0 0 C4.61581142 2.18643699 6.72864085 4.49599804 9 9 C9.82885269 14.54808604 9.7240695 19.47140883 7.3125 24.5625 C4.21064779 27.8320199 1.61649202 29.75850523 -2.90234375 30.43359375 C-9.05071801 30.44150672 -13.31314296 30.4465054 -18 26 C-21.88937897 20.55860924 -21.79042609 15.48149391 -21 9 C-16.63929544 -0.20593186 -9.3488659 -1.1401056 0 0 Z " fill="#02B2BA" transform="translate(22,1)"/>
<path d="M0 0 C4.61581142 2.18643699 6.72864085 4.49599804 9 9 C9.82885269 14.54808604 9.7240695 19.47140883 7.3125 24.5625 C4.21064779 27.8320199 1.61649202 29.75850523 -2.90234375 30.43359375 C-9.05071801 30.44150672 -13.31314296 30.4465054 -18 26 C-21.88937897 20.55860924 -21.79042609 15.48149391 -21 9 C-16.63929544 -0.20593186 -9.3488659 -1.1401056 0 0 Z M-19 8 C-20.24115911 11.72347734 -20.5420862 15.13214172 -20 19 C-17.46579412 23.6314797 -15.06902315 27.31032562 -10 29 C-4.60111357 29.34831525 -1.41129255 29.43100532 3 26 C6.92090922 22.51474736 7.90647593 20.44962305 8.25 15.125 C8.1866633 11.28257358 7.46097657 9.05500539 5 6 C0.54701901 2.09006547 -1.95216157 0.69415424 -7.97265625 0.78125 C-12.73165891 1.29474547 -15.96605237 4.53263128 -19 8 Z " fill="#EBF7F8" transform="translate(22,1)"/>
<path d="M0 0 C0.99 0.33 1.98 0.66 3 1 C1.84826645 3.46800047 0.95216435 5.04783565 -1 7 C-1.68590324 12.72614378 -1.68590324 12.72614378 1 17.5 C1.66 17.995 2.32 18.49 3 19 C2.67 19.99 2.34 20.98 2 22 C-1.81821593 21.04544602 -2.97747646 20.03022896 -5.375 16.8125 C-7.36105513 12.92919708 -7.2513093 10.2231689 -6 6 C-4.17660948 3.29432374 -2.92542564 1.46271282 0 0 Z " fill="#6FD9DD" transform="translate(16,5)"/>
<path d="M0 0 C-0.4640625 0.8353125 -0.4640625 0.8353125 -0.9375 1.6875 C-2.09605966 4.20907102 -2.78670479 6.22716229 -3 9 C-1.62485459 10.7087646 -1.62485459 10.7087646 0 12 C0 12.66 0 13.32 0 14 C-1.875 13.6875 -1.875 13.6875 -4 13 C-6.32749345 9.50875983 -6.50299316 8.10777749 -6 4 C-2.84210526 0 -2.84210526 0 0 0 Z " fill="#DFF7F8" transform="translate(22,9)"/>
<path d="M0 0 C0.598125 0.763125 1.19625 1.52625 1.8125 2.3125 C4.41016278 5.50391427 6.57272246 7.7151483 10 10 C6.43949035 9.69481346 4.99964963 8.99971192 2.1875 6.6875 C0 4 0 4 0 0 Z " fill="#DCF4F5" transform="translate(2,20)"/>
<path d="M0 0 C1.65 1.32 3.3 2.64 5 4 C4.67 4.99 4.34 5.98 4 7 C1.525 6.01 1.525 6.01 -1 5 C-1 4.01 -1 3.02 -1 2 C-0.34 2.33 0.32 2.66 1 3 C0.67 2.01 0.34 1.02 0 0 Z " fill="#BFEFF1" transform="translate(14,20)"/>
</svg>
