<svg width="45" height="33" viewBox="0 0 45 33" fill="none" xmlns="http://www.w3.org/2000/svg">
                <path fill-rule="evenodd" clip-rule="evenodd" d="M44.3469 8.77535L0.236666 9.32091L0.205078 8.16821L44.3469 6.28418V8.77535Z" fill="#191919">
                </path>
                <path fill-rule="evenodd" clip-rule="evenodd" d="M44.3468 6.52679L0.204979 8.16829L0.189453 7.59222L44.3468 5.53418V6.52679Z" fill="white">
                </path>
                <path fill-rule="evenodd" clip-rule="evenodd" d="M20.8993 1.08984C12.211 1.08984 5.16797 8.13316 5.16797 16.8212C5.16797 25.5095 12.2113 32.5528 20.8993 32.5528C29.5876 32.5528 36.6307 25.5098 36.6307 16.8212C36.6307 8.13316 29.5876 1.08984 20.8993 1.08984Z" fill="#C10200"></path>
                <path fill-rule="evenodd" clip-rule="evenodd" d="M44.3466 1.53418L0.759766 12.9286L1.03469 14.0484L44.3466 4.1169V1.53418Z" fill="#191919"></path>
                <path fill-rule="evenodd" clip-rule="evenodd" d="M44.3467 0.874023L0.576172 12.1809L0.75981 12.9286L44.3467 1.98496V0.874023Z" fill="white">
                </path>
                <path d="M13.9249 20.3896C15.3364 20.3896 16.3952 19.5563 16.3952 18.0468V13.3905H14.8267V18.0468C14.8267 18.4681 14.6209 18.8603 13.9345 18.8603C13.4053 18.8603 13.1796 18.6544 12.9641 18.2722L11.6016 19.0565C12.0526 19.9289 12.837 20.3896 13.9249 20.3896ZM24.3157 16.4293H20.875V17.8018H22.7079C22.463 18.4585 21.865 18.8603 20.9535 18.8603C19.6204 18.8603 18.7967 18.0077 18.7967 16.8408C18.7967 15.6351 19.6594 14.7825 20.8161 14.7825C21.5903 14.7825 22.2082 15.1353 22.4925 15.5861L23.8256 14.8218C23.2471 13.9004 22.1394 13.2534 20.8258 13.2534C18.8066 13.2534 17.2282 14.8414 17.2282 16.8312C17.2282 18.8017 18.7768 20.3899 20.9337 20.3899C22.8549 20.3899 24.3155 19.1154 24.3155 17.0177V16.4296L24.3157 16.4293ZM27.7957 13.3905H25.198V20.2523H26.7665V18.0957H27.7957C29.1487 18.0957 30.1975 17.0469 30.1975 15.7432C30.1975 14.4396 29.1487 13.3905 27.7957 13.3905ZM27.7957 16.6253H26.7665V14.8609H27.7957C28.2763 14.8609 28.6291 15.2429 28.6291 15.7432C28.6291 16.243 28.2763 16.6256 27.7957 16.6256V16.6253Z" fill="white"></path>
            </svg>