<svg xmlns="http://www.w3.org/2000/svg" fill="currentColor" width="48px" viewBox="0 0 600 600">
<path d="M391.3,185.7L220,482.4l-144.9-251h102.9l42.1,72.8l42.1-72.8v0c16.3-28.3,46.5-45.7,79.2-45.7H391.3z
	 M540.8,117.1c-32.7,0-62.8,17.4-79.2,45.7l0,0L380,304.3l-17.1-29.7l-51.4,89.1L380,482.4l210.9-365.3H540.8z M571.1,197.1
	l-12.2,21.2c8.2,25.8,12.6,53.2,12.6,81.7c0,149.7-121.8,271.4-271.4,271.4S28.6,449.7,28.6,300S150.3,28.6,300,28.6
	c73.9,0,140.9,29.7,189.9,77.7c9.5-4.7,19.7-8.1,30.2-10.1c-2.6-2.8-5.3-5.6-8-8.3C455.5,31.2,380.1,0,300,0S144.5,31.2,87.9,87.9
	C31.2,144.5,0,219.9,0,300s31.2,155.5,87.9,212.1c56.7,56.7,132,87.9,212.1,87.9s155.5-31.2,212.1-87.9
	c56.7-56.7,87.9-132,87.9-212.1c0-39.8-7.7-78.4-22.4-114.1L571.1,197.1z"></path>
</svg>